<?xml version="1.0" encoding="iso-8859-1"?>
<!-- Uploaded to: SVG Repo, www.svgrepo.com, Generator: SVG Repo Mixer Tools -->
<svg fill="#000000" height="800px" width="800px" version="1.1" id="Layer_1" xmlns="http://www.w3.org/2000/svg" xmlns:xlink="http://www.w3.org/1999/xlink" 
	 viewBox="0 0 512 512" xml:space="preserve">
<g>
	<g>
		<path d="M449.895,265.454c-5.302-4.573-24.284-31.541-28.613-40.031c-4.172-8.183-5.431-10.654-1.024-20.201
			c7.615-16.498,3.79-29.464-1.477-41.019c-2.063-4.525-4.498-12.505-7.317-21.743c-5.915-19.388-13.277-43.516-23.892-57.828
			c-24.438-32.949-64.465-52.389-119.024-57.861V16.568C268.547,7.432,261.115,0,251.979,0h-34.205
			c-9.136,0-16.568,7.432-16.568,16.568v11.51C160.133,33.672,128.099,50.594,95.29,83.77
			c-26.77,27.071-42.124,63.948-42.124,101.174c0,38.235,10.999,79.62,32.692,123.006c11.114,22.229,16.78,50.201,19.654,71.54
			c-3.088,0.207-6.105,1.256-8.661,3.118c-4.264,3.108-6.809,8.113-6.809,13.389v22.475c0,3.387,2.13,6.41,5.321,7.55
			l239.432,85.511c0.877,0.313,1.788,0.467,2.696,0.467c1.632,0,3.249-0.498,4.619-1.463c2.131-1.502,3.399-3.946,3.399-6.553
			v-36.522c0-7.224-4.621-13.562-11.498-15.773l-6.654-2.139c1.665-10.447,3.376-13.183,3.624-13.533
			c6.119-5.988,21.734-5.292,36.837-4.622c3.559,0.158,7.239,0.322,10.887,0.407c26.747,0.603,41.377-19.427,43.221-33.87
			c1.069-8.373-0.697-15.32-2.115-20.904c-0.732-2.881-1.424-5.602-1.319-7.206c0.19-2.929,0.878-3.518,3.154-5.467
			c1.985-1.701,4.704-4.03,6.455-7.969c1.926-4.333,1.681-9.161-0.591-13.792c4.058-3.491,5.777-7.198,6.487-9.995
			c1.204-4.74,0.34-9.766-2.432-14.156c-1.741-2.757-1.983-4.882-1.645-7.086c0.955-0.267,2.126-0.553,3.093-0.788
			c3.904-0.951,8.761-2.136,13.465-4.535c6.946-3.543,11.274-9.666,12.186-17.24C459.678,280.379,456.072,270.783,449.895,265.454z
			 M217.241,16.568c0-0.295,0.239-0.534,0.534-0.534h34.205c0.295,0,0.534,0.239,0.534,0.534v111.165
			c0,0.295-0.239,0.534-0.534,0.534h-34.205c-0.295,0-0.534-0.239-0.534-0.534V16.568z M243.964,144.301v120.25
			c0,5.01-4.076,9.086-9.086,9.086c-5.01,0-9.086-4.076-9.086-9.086v-120.25H243.964z M234.878,289.67
			c2.795,0,5.481-0.466,7.994-1.313l17.36,21.385c-7.503,4.225-16.149,6.648-25.355,6.648c-28.585,0-51.841-23.256-51.841-51.841
			c0-18.978,10.58-36.326,26.722-45.337v45.338C209.759,278.402,221.027,289.67,234.878,289.67z M255.65,278.658
			c2.742-4.024,4.347-8.881,4.347-14.107v-45.337c16.142,9.012,26.722,26.359,26.722,45.337c0,13.612-5.281,26.008-13.892,35.268
			L255.65,278.658z M329.104,466.953c0.222,0.071,0.371,0.276,0.371,0.509v25.147l-223.399-79.785v-16.824
			c0-0.089,0-0.271,0.22-0.432s0.394-0.104,0.478-0.077L329.104,466.953z M442.746,286.875c-0.271,2.256-1.368,3.761-3.555,4.877
			c-3.035,1.548-6.722,2.447-9.976,3.24c-5.811,1.416-12.395,3.022-14.185,9.587c-1.009,3.702-3.373,12.369,2.978,22.425
			c0.145,0.23,0.606,1.027,0.449,1.647c-0.183,0.72-1.237,1.97-3.647,3.318c-2.721,1.522-4.603,4.162-5.161,7.243
			c-0.572,3.155,0.293,6.375,2.372,8.833c0.826,0.977,1.182,1.709,1.303,2.061c-0.335,0.537-1.021,1.138-2.11,2.071
			c-3.028,2.593-8.095,6.934-8.723,16.603c-0.268,4.137,0.727,8.052,1.78,12.197c1.197,4.708,2.434,9.576,1.752,14.924
			c-1.053,8.244-10.336,20.261-26.939,19.871c-3.48-0.082-7.076-0.242-10.552-0.397c-19.489-0.866-37.901-1.685-48.963,9.376
			c-2.533,2.534-5.356,6.959-7.637,19.838l-189.745-60.989c-0.008-0.094-0.009-0.188-0.019-0.282
			c-2.752-23.117-8.798-56.202-21.967-82.538c-20.57-41.14-30.999-80.112-30.999-115.836c0-33.039,13.665-65.806,37.491-89.9
			c29.932-30.268,57.852-45.386,94.516-50.777v83.465c0,6.228,3.458,11.659,8.551,14.489v59.269
			c-25.448,10.176-42.756,35.288-42.756,63.06c0,37.426,30.448,67.875,67.875,67.875c13.036,0,25.219-3.702,35.57-10.098
			l18.915,23.302c6.422,7.912,15.95,12.449,26.141,12.449h23.842c3.354,9.93,12.752,17.102,23.8,17.102h17.102
			c4.427,0,8.017-3.589,8.017-8.017V332.96c0-4.427-3.589-8.017-8.017-8.017h-17.102c-11.048,0-20.446,7.172-23.8,17.102h-23.842
			c-5.338,0-10.329-2.377-13.694-6.521l-18.804-23.165c12.196-12.277,19.746-29.177,19.746-47.808
			c0-27.773-17.307-52.885-42.756-63.06v-59.269c5.093-2.829,8.551-8.26,8.551-14.489v-84.84
			c28.249,2.998,52.217,9.962,71.311,20.768c14.141,8.002,25.536,17.986,34.834,30.523c8.965,12.088,15.878,34.748,21.435,52.955
			c2.984,9.781,5.561,18.229,8.063,23.716c4.49,9.851,6.177,17.533,1.508,27.649c-7.152,15.496-4.281,23.258,1.298,34.202
			c4.349,8.531,24.672,38.203,32.425,44.89C441.366,279.271,443.165,283.4,442.746,286.875z M354.06,350.063
			c0-5.01,4.076-9.086,9.086-9.086h9.086v18.171h-9.086C358.136,359.148,354.06,355.073,354.06,350.063z"/>
	</g>
</g>
</svg>